<svg xmlns="http://www.w3.org/2000/svg" viewBox="0 0 400 400" width="400" height="400" preserveAspectRatio="xMidYMid meet" style="width: 100%; height: 100%; transform: translate3d(0px, 0px, 0px); content-visibility: visible;"><defs><clipPath id="__lottie_element_330"><rect width="400" height="400" x="0" y="0"></rect></clipPath></defs><g clip-path="url(#__lottie_element_330)"><g transform="matrix(1,0,0,1,0,0)" opacity="0.1" style="display: block;"><g opacity="1" transform="matrix(1,0,0,1,181.3800048828125,388.2950134277344)"><path fill="rgb(43,43,43)" fill-opacity="1" d=" M89.61000061035156,1.725000023841858 C89.61000061035156,1.725000023841858 8.720000267028809,-11.704999923706055 8.720000267028809,-11.704999923706055 C8.720000267028809,-11.704999923706055 -89.61000061035156,-1.4049999713897705 -89.61000061035156,-1.4049999713897705 C-89.61000061035156,-1.4049999713897705 -13.470000267028809,11.704999923706055 -13.470000267028809,11.704999923706055 C-13.470000267028809,11.704999923706055 89.61000061035156,1.725000023841858 89.61000061035156,1.725000023841858z"></path></g></g><g transform="matrix(0.9999989867210388,0.001438894192688167,-0.001438894192688167,0.9999989867210388,-0.013042985461652279,-0.29216301441192627)" opacity="1" style="display: block;"><g opacity="1" transform="matrix(1,0,0,1,244.34100341796875,72.83000183105469)"><path fill="rgb(223,188,164)" fill-opacity="1" d=" M2.009000062942505,49.560001373291016 C2.009000062942505,49.560001373291016 37.599998474121094,35.369998931884766 37.599998474121094,35.369998931884766 C37.599998474121094,35.369998931884766 13.538999557495117,-41.130001068115234 13.538999557495117,-41.130001068115234 C13.538999557495117,-41.130001068115234 4.169000148773193,-45.880001068115234 4.169000148773193,-45.880001068115234 C4.169000148773193,-45.880001068115234 -5.410999774932861,-50.4900016784668 -5.410999774932861,-50.4900016784668 C-5.410999774932861,-50.4900016784668 -19.961000442504883,-56.11000061035156 -19.961000442504883,-56.11000061035156 C-19.961000442504883,-56.11000061035156 -30.910999298095703,-39.689998626708984 -30.910999298095703,-39.689998626708984 C-30.910999298095703,-39.689998626708984 -33.13999938964844,-40.84000015258789 -33.13999938964844,-40.84000015258789 C-33.13999938964844,-40.84000015258789 -37.599998474121094,-31.6200008392334 -37.599998474121094,-31.6200008392334 C-37.599998474121094,-31.6200008392334 -16.500999450683594,56.11000061035156 -16.500999450683594,56.11000061035156 C-16.500999450683594,56.11000061035156 2.009000062942505,49.560001373291016 2.009000062942505,49.560001373291016z"></path></g><g opacity="1" transform="matrix(1,0,0,1,216.35000610351562,87.30999755859375)"><path fill="rgb(195,151,122)" fill-opacity="1" d=" M-9.539999961853027,-45.959999084472656 C-9.539999961853027,-45.959999084472656 11.489999771118164,41.630001068115234 11.489999771118164,41.630001068115234 C11.489999771118164,41.630001068115234 8.470000267028809,44.880001068115234 8.470000267028809,44.880001068115234 C8.470000267028809,44.880001068115234 0.4699999988079071,45.959999084472656 0.4699999988079071,45.959999084472656 C0.4699999988079071,45.959999084472656 -5.150000095367432,38.970001220703125 -5.150000095367432,38.970001220703125 C-5.150000095367432,38.970001220703125 -9.109000205993652,28.959999084472656 -9.109000205993652,28.959999084472656 C-9.109000205993652,28.959999084472656 -11.489999771118164,2.5899999141693115 -11.489999771118164,2.5899999141693115 C-11.489999771118164,2.5899999141693115 -9.539999961853027,-45.959999084472656 -9.539999961853027,-45.959999084472656z"></path></g><g opacity="1" transform="matrix(1,0,0,1,0,0)"><g opacity="1" transform="matrix(1,0,0,1,203.52000427246094,88.19100189208984)"><path fill="rgb(195,151,122)" fill-opacity="1" d=" M3.2899999618530273,-46.84000015258789 C3.2899999618530273,-46.84000015258789 24.31999969482422,40.749000549316406 24.31999969482422,40.749000549316406 C24.31999969482422,40.749000549316406 21.299999237060547,43.999000549316406 21.299999237060547,43.999000549316406 C14.307000160217285,44.94599914550781 7.313000202178955,45.893001556396484 0.3199999928474426,46.84000015258789 C-7.89300012588501,21.54800033569336 -16.10700035095215,-3.74399995803833 -24.31999969482422,-29.03700065612793 C-15.116999626159668,-34.97100067138672 -5.913000106811523,-40.904998779296875 3.2899999618530273,-46.84000015258789z"></path></g><g opacity="1" transform="matrix(1,0,0,1,244.34100341796875,72.83000183105469)"><path fill="rgb(223,188,164)" fill-opacity="1" d=" M2.009000062942505,49.560001373291016 C2.009000062942505,49.560001373291016 37.599998474121094,35.369998931884766 37.599998474121094,35.369998931884766 C37.599998474121094,35.369998931884766 13.538999557495117,-41.130001068115234 13.538999557495117,-41.130001068115234 C13.538999557495117,-41.130001068115234 4.169000148773193,-45.880001068115234 4.169000148773193,-45.880001068115234 C4.169000148773193,-45.880001068115234 -5.410999774932861,-50.4900016784668 -5.410999774932861,-50.4900016784668 C-5.410999774932861,-50.4900016784668 -19.961000442504883,-56.11000061035156 -19.961000442504883,-56.11000061035156 C-19.961000442504883,-56.11000061035156 -30.910999298095703,-39.689998626708984 -30.910999298095703,-39.689998626708984 C-30.910999298095703,-39.689998626708984 -33.13999938964844,-40.84000015258789 -33.13999938964844,-40.84000015258789 C-33.13999938964844,-40.84000015258789 -37.599998474121094,-31.6200008392334 -37.599998474121094,-31.6200008392334 C-37.599998474121094,-31.6200008392334 -16.500999450683594,56.11000061035156 -16.500999450683594,56.11000061035156 C-16.500999450683594,56.11000061035156 2.009000062942505,49.560001373291016 2.009000062942505,49.560001373291016z"></path></g><g opacity="1" transform="matrix(1,0,0,1,248.0449981689453,83.73999786376953)"><path fill="rgb(138,102,81)" fill-opacity="1" d=" M2.4860000610351562,-2.630000114440918 C2.4860000610351562,-2.630000114440918 1.2640000581741333,2.630000114440918 1.2640000581741333,2.630000114440918 C1.2640000581741333,2.630000114440918 -2.4860000610351562,-1.1100000143051147 -2.4860000610351562,-1.1100000143051147 C-2.4860000610351562,-1.1100000143051147 2.4860000610351562,-2.630000114440918 2.4860000610351562,-2.630000114440918z"></path></g><g opacity="1" transform="matrix(1,0,0,1,236.99000549316406,15.850000381469727)"><path fill="rgb(232,239,120)" fill-opacity="1" d=" M20.959999084472656,15.850000381469727 C20.959999084472656,15.850000381469727 15.989999771118164,1.659999966621399 15.989999771118164,1.659999966621399 C15.989999771118164,1.659999966621399 -18.729999542236328,-15.850000381469727 -18.729999542236328,-15.850000381469727 C-18.729999542236328,-15.850000381469727 -20.959999084472656,1.0800000429153442 -20.959999084472656,1.0800000429153442 C-20.959999084472656,1.0800000429153442 -12.609999656677246,0.8700000047683716 -12.609999656677246,0.8700000047683716 C-12.609999656677246,0.8700000047683716 1.9390000104904175,6.489999771118164 1.9390000104904175,6.489999771118164 C1.9390000104904175,6.489999771118164 11.520000457763672,11.100000381469727 11.520000457763672,11.100000381469727 C11.520000457763672,11.100000381469727 20.959999084472656,15.850000381469727 20.959999084472656,15.850000381469727z"></path></g><g opacity="1" transform="matrix(1,0,0,1,187.7550048828125,30.295000076293945)"><path fill="rgb(217,226,83)" fill-opacity="1" d=" M30.5049991607666,-30.295000076293945 C30.5049991607666,-30.295000076293945 -18.985000610351562,-13.864999771118164 -18.985000610351562,-13.864999771118164 C-18.985000610351562,-13.864999771118164 -32.01499938964844,20.78499984741211 -32.01499938964844,20.78499984741211 C-32.01499938964844,20.78499984741211 -36.625,30.295000076293945 -36.625,30.295000076293945 C-36.625,30.295000076293945 -22.725000381469727,25.46500015258789 -22.725000381469727,25.46500015258789 C-22.725000381469727,25.46500015258789 -8.895000457763672,20.854999542236328 -8.895000457763672,20.854999542236328 C-8.895000457763672,20.854999542236328 4.934999942779541,15.954999923706055 4.934999942779541,15.954999923706055 C4.934999942779541,15.954999923706055 19.05500030517578,11.055000305175781 19.05500030517578,11.055000305175781 C19.05500030517578,11.055000305175781 25.674999237060547,2.8450000286102295 25.674999237060547,2.8450000286102295 C25.674999237060547,2.8450000286102295 36.625,-13.574999809265137 36.625,-13.574999809265137 C36.625,-13.574999809265137 30.5049991607666,-30.295000076293945 30.5049991607666,-30.295000076293945z"></path></g><g opacity="1" transform="matrix(1,0,0,1,176.9499969482422,84.86000061035156)"><path fill="rgb(184,198,69)" fill-opacity="1" d=" M29.860000610351562,-43.5099983215332 C29.860000610351562,-43.5099983215332 16.100000381469727,-38.68000030517578 16.100000381469727,-38.68000030517578 C16.100000381469727,-38.68000030517578 1.909999966621399,-33.709999084472656 1.909999966621399,-33.709999084472656 C1.909999966621399,-33.709999084472656 -11.920000076293945,-29.100000381469727 -11.920000076293945,-29.100000381469727 C-11.920000076293945,-29.100000381469727 -25.81999969482422,-24.270000457763672 -25.81999969482422,-24.270000457763672 C-25.81999969482422,-24.270000457763672 -29.860000610351562,43.5099983215332 -29.860000610351562,43.5099983215332 C-29.860000610351562,43.5099983215332 12.913000106811523,53.875 12.913000106811523,53.875 C12.913000106811523,53.875 29.2549991607666,2.888000011444092 29.2549991607666,2.888000011444092 C29.2549991607666,2.888000011444092 29.69499969482422,-37.5 29.69499969482422,-37.5 C29.69499969482422,-37.5 29.860000610351562,-43.5099983215332 29.860000610351562,-43.5099983215332z"></path></g></g><g opacity="1" transform="matrix(1,0,0,1,231.5850067138672,138.30999755859375)"><path fill="rgb(138,102,81)" fill-opacity="1" d=" M-14.763999938964844,-5.039999961853027 C-14.763999938964844,-5.039999961853027 -3.244999885559082,15.920000076293945 -3.244999885559082,15.920000076293945 C-3.244999885559082,15.920000076293945 14.763999938964844,-15.920000076293945 14.763999938964844,-15.920000076293945 C14.763999938964844,-15.920000076293945 -3.744999885559082,-9.369999885559082 -3.744999885559082,-9.369999885559082 C-3.744999885559082,-9.369999885559082 -14.763999938964844,-5.039999961853027 -14.763999938964844,-5.039999961853027z"></path></g><g opacity="1" transform="matrix(1,0,0,1,0,0)"><g opacity="1" transform="matrix(1,0,0,1,249.6999969482422,59.36000061035156)"><path fill="rgb(195,151,122)" fill-opacity="1" d=" M-10.119999885559082,-7.920000076293945 C-10.119999885559082,-7.920000076293945 -2.9100000858306885,11.670000076293945 -2.9100000858306885,11.670000076293945 C-2.9100000858306885,11.670000076293945 10.119999885559082,-11.670000076293945 10.119999885559082,-11.670000076293945 C10.119999885559082,-11.670000076293945 -10.119999885559082,-7.920000076293945 -10.119999885559082,-7.920000076293945z"></path></g><g opacity="1" transform="matrix(1,0,0,1,231.5500030517578,67.46499633789062)"><path fill="rgb(195,151,122)" fill-opacity="1" d=" M3.2100000381469727,-15.164999961853027 C3.2100000381469727,-15.164999961853027 -14.010000228881836,-2.4149999618530273 -14.010000228881836,-2.4149999618530273 C-14.010000228881836,-2.4149999618530273 0.6100000143051147,-0.5450000166893005 0.6100000143051147,-0.5450000166893005 C0.6100000143051147,-0.5450000166893005 14.010000228881836,15.164999961853027 14.010000228881836,15.164999961853027 C14.010000228881836,15.164999961853027 3.2100000381469727,-15.164999961853027 3.2100000381469727,-15.164999961853027z"></path></g><g opacity="1" transform="matrix(1,0,0,1,226.14999389648438,58.67499923706055)"><path fill="rgb(184,198,69)" fill-opacity="1" d=" M8.609999656677246,-6.375 C8.609999656677246,-6.375 -7.53000020980835,0.7549999952316284 -7.53000020980835,0.7549999952316284 C-7.53000020980835,0.7549999952316284 -8.609999656677246,6.375 -8.609999656677246,6.375 C-8.609999656677246,6.375 8.609999656677246,-6.375 8.609999656677246,-6.375z"></path></g><g opacity="1" transform="matrix(1,0,0,1,249.6999969482422,48.04999923706055)"><path fill="rgb(184,198,69)" fill-opacity="1" d=" M-10.119999885559082,3.390000104904175 C-10.119999885559082,3.390000104904175 8.539999961853027,-3.390000104904175 8.539999961853027,-3.390000104904175 C8.539999961853027,-3.390000104904175 10.119999885559082,-0.36000001430511475 10.119999885559082,-0.36000001430511475 C10.119999885559082,-0.36000001430511475 -10.119999885559082,3.390000104904175 -10.119999885559082,3.390000104904175z"></path></g></g><g opacity="1" transform="matrix(1,0,0,1,242.64500427246094,67.03500366210938)"><path fill="rgb(232,201,182)" fill-opacity="1" d=" M-7.885000228881836,-14.734999656677246 C-7.885000228881836,-14.734999656677246 2.9140000343322754,15.595000267028809 2.9140000343322754,15.595000267028809 C2.9140000343322754,15.595000267028809 7.885000228881836,14.074999809265137 7.885000228881836,14.074999809265137 C7.885000228881836,14.074999809265137 4.199999809265137,4.090000152587891 4.199999809265137,4.090000152587891 C4.199999809265137,4.090000152587891 -3.065999984741211,-15.595000267028809 -3.065999984741211,-15.595000267028809 C-3.065999984741211,-15.595000267028809 -7.885000228881836,-14.734999656677246 -7.885000228881836,-14.734999656677246z"></path></g></g><g transform="matrix(0.9999989867210388,0.001438894192688167,-0.001438894192688167,0.9999989867210388,-0.013042985461652279,-0.29216301441192627)" opacity="1" style="display: block;"><g opacity="1" transform="matrix(1,0,0,1,250.2100067138672,97.43000030517578)"><path fill="rgb(153,194,108)" fill-opacity="1" d=" M16.81999969482422,-7.889999866485596 C16.81999969482422,-7.889999866485596 2.190000057220459,2.2699999809265137 2.190000057220459,2.2699999809265137 C2.190000057220459,2.2699999809265137 -16.820999145507812,2.7699999809265137 -16.820999145507812,2.7699999809265137 C-16.820999145507812,2.7699999809265137 3.7100000381469727,7.889999866485596 3.7100000381469727,7.889999866485596 C3.7100000381469727,7.889999866485596 16.81999969482422,-7.889999866485596 16.81999969482422,-7.889999866485596z"></path></g><g opacity="1" transform="matrix(1,0,0,1,250.2100067138672,94.87000274658203)"><path fill="rgb(90,117,60)" fill-opacity="1" d=" M16.81999969482422,-5.329999923706055 C16.81999969482422,-5.329999923706055 10.84000015258789,-3.1700000762939453 10.84000015258789,-3.1700000762939453 C10.84000015258789,-3.1700000762939453 2.5490000247955322,-1.7999999523162842 2.5490000247955322,-1.7999999523162842 C2.5490000247955322,-1.7999999523162842 -2.7809998989105225,0 -2.7809998989105225,0 C-2.7809998989105225,0 -9.039999961853027,3.5999999046325684 -9.039999961853027,3.5999999046325684 C-9.039999961853027,3.5999999046325684 -16.820999145507812,5.329999923706055 -16.820999145507812,5.329999923706055 C-16.820999145507812,5.329999923706055 2.190000057220459,4.829999923706055 2.190000057220459,4.829999923706055 C2.190000057220459,4.829999923706055 16.81999969482422,-5.329999923706055 16.81999969482422,-5.329999923706055z"></path></g></g><g transform="matrix(0.9997044205665588,-0.024312928318977356,0.024312928318977356,0.9997044205665588,50.640655517578125,2.396527051925659)" opacity="1" style="display: block;"><g opacity="1" transform="matrix(1,0,0,1,89.78500366210938,230.75999450683594)"><path fill="rgb(153,194,108)" fill-opacity="1" d=" M11.164999961853027,-22.190000534057617 C11.164999961853027,-22.190000534057617 0.7250000238418579,22.190000534057617 0.7250000238418579,22.190000534057617 C0.7250000238418579,22.190000534057617 -7.005000114440918,10.149999618530273 -7.005000114440918,10.149999618530273 C-7.005000114440918,10.149999618530273 -6.195000171661377,0.008999999612569809 -6.195000171661377,0.008999999612569809 C-6.195000171661377,0.008999999612569809 -11.227999687194824,-16.23200035095215 -11.227999687194824,-16.23200035095215 C-11.227999687194824,-16.23200035095215 11.164999961853027,-22.190000534057617 11.164999961853027,-22.190000534057617z"></path></g><g opacity="1" transform="matrix(1,0,0,1,96.62999725341797,191.85899353027344)"><path fill="rgb(115,141,86)" fill-opacity="1" d=" M4.923748970031738,-24.927146911621094 C4.923748970031738,-24.927146911621094 -18.069950103759766,22.678319931030273 -18.069950103759766,22.678319931030273 C-18.069950103759766,22.678319931030273 19.641202926635742,12.537403106689453 19.641202926635742,12.537403106689453 C19.641202926635742,12.537403106689453 4.923748970031738,-24.927146911621094 4.923748970031738,-24.927146911621094z"></path></g></g><g transform="matrix(0.9997044205665588,-0.024312928318977356,0.024312928318977356,0.9997044205665588,-4.267030715942383,3.9819624423980713)" opacity="1" style="display: block;"><g opacity="1" transform="matrix(1,0,0,1,135.5500030517578,242.07000732421875)"><path fill="rgb(223,188,164)" fill-opacity="1" d=" M9.890000343322754,10.630000114440918 C9.890000343322754,10.630000114440918 0.8500000238418579,11.5600004196167 0.8500000238418579,11.5600004196167 C0.8500000238418579,11.5600004196167 -9.890000343322754,8.479999542236328 -9.890000343322754,8.479999542236328 C-9.890000343322754,8.479999542236328 2.9800000190734863,-11.5600004196167 2.9800000190734863,-11.5600004196167 C2.9800000190734863,-11.5600004196167 9.890000343322754,10.630000114440918 9.890000343322754,10.630000114440918z"></path></g><g opacity="1" transform="matrix(1,0,0,1,125.37000274658203,246.55499267578125)"><path fill="rgb(195,151,122)" fill-opacity="1" d=" M11.029999732971191,7.074999809265137 C11.029999732971191,7.074999809265137 -7.887928009033203,-8.517313003540039 -7.887928009033203,-8.517313003540039 C-7.887928009033203,-8.517313003540039 -11.012542724609375,3.861117124557495 -11.012542724609375,3.861117124557495 C-11.012542724609375,3.861117124557495 -2.6489672660827637,8.58236026763916 -2.6489672660827637,8.58236026763916 C-2.6489672660827637,8.58236026763916 11.029999732971191,7.074999809265137 11.029999732971191,7.074999809265137z"></path></g></g><g transform="matrix(1,0,0,1,0,0)" opacity="1" style="display: block;"><g opacity="1" transform="matrix(1,0,0,1,187.43499755859375,371.625)"><path fill="rgb(223,188,164)" fill-opacity="1" d=" M2.6831398010253906,-20.119298934936523 C2.6831398010253906,-20.119298934936523 -0.15539199113845825,-17.907304763793945 -0.15539199113845825,-17.907304763793945 C-0.15539199113845825,-17.907304763793945 -12.35746955871582,-8.742570877075195 -12.35746955871582,-8.742570877075195 C-12.35746955871582,-8.742570877075195 2.6649999618530273,20.2450008392334 2.6649999618530273,20.2450008392334 C2.6649999618530273,20.2450008392334 12.081808090209961,-11.566940307617188 12.081808090209961,-11.566940307617188 C12.081808090209961,-11.566940307617188 2.6831398010253906,-20.119298934936523 2.6831398010253906,-20.119298934936523z"></path></g><g opacity="1" transform="matrix(1,0,0,1,198.59500122070312,386.8949890136719)"><path fill="rgb(195,151,122)" fill-opacity="1" d=" M-8.494999885559082,4.974999904632568 C-8.494999885559082,4.974999904632568 8.494999885559082,4.605000019073486 8.494999885559082,4.605000019073486 C8.494999885559082,4.605000019073486 -5.613364219665527,-4.970589637756348 -5.613364219665527,-4.970589637756348 C-5.613364219665527,-4.970589637756348 -8.494999885559082,4.974999904632568 -8.494999885559082,4.974999904632568z"></path></g><g opacity="1" transform="matrix(1,0,0,1,193.16000366210938,355.4150085449219)"><path fill="rgb(138,102,81)" fill-opacity="1" d=" M6.339681148529053,4.707046985626221 C6.339681148529053,4.707046985626221 -6.656976222991943,-1.1080410480499268 -6.656976222991943,-1.1080410480499268 C-6.656976222991943,-1.1080410480499268 -3.6551733016967773,-4.605803966522217 -3.6551733016967773,-4.605803966522217 C-3.6551733016967773,-4.605803966522217 3.4583892822265625,0.9439318776130676 3.4583892822265625,0.9439318776130676 C3.4583892822265625,0.9439318776130676 6.339681148529053,4.707046985626221 6.339681148529053,4.707046985626221z"></path></g></g><g transform="matrix(0.9999860525131226,-0.005279360804706812,0.005279360804706812,0.9999860525131226,-1.608856201171875,1.162994384765625)" opacity="1" style="display: block;"><g opacity="1" transform="matrix(1,0,0,1,123.97000122070312,310.7900085449219)"><path fill="rgb(223,188,164)" fill-opacity="1" d=" M5.400000095367432,-14.869999885559082 C5.400000095367432,-14.869999885559082 -7.78000020980835,-19.6299991607666 -7.78000020980835,-19.6299991607666 C-7.78000020980835,-19.6299991607666 -14.90999984741211,19.6299991607666 -14.90999984741211,19.6299991607666 C-14.90999984741211,19.6299991607666 14.90999984741211,-6.230000019073486 14.90999984741211,-6.230000019073486 C14.90999984741211,-6.230000019073486 5.400000095367432,-14.869999885559082 5.400000095367432,-14.869999885559082z"></path></g><g opacity="1" transform="matrix(1,0,0,1,114.75,331.3900146484375)"><path fill="rgb(195,151,122)" fill-opacity="1" d=" M2.809999942779541,-8.319999694824219 C2.809999942779541,-8.319999694824219 5.533657073974609,8.453978538513184 5.533657073974609,8.453978538513184 C5.533657073974609,8.453978538513184 -5.690000057220459,-0.9700000286102295 -5.690000057220459,-0.9700000286102295 C-5.690000057220459,-0.9700000286102295 2.809999942779541,-8.319999694824219 2.809999942779541,-8.319999694824219z"></path></g><g opacity="1" transform="matrix(1,0,0,1,134.125,303.04998779296875)"><path fill="rgb(138,102,81)" fill-opacity="1" d=" M-4.794668674468994,-7.138371467590332 C-4.794668674468994,-7.138371467590332 -1.6710721254348755,7.145737171173096 -1.6710721254348755,7.145737171173096 C-1.6710721254348755,7.145737171173096 4.755000114440918,1.5099999904632568 4.755000114440918,1.5099999904632568 C4.755000114440918,1.5099999904632568 -1.2351226806640625,-3.967489242553711 -1.2351226806640625,-3.967489242553711 C-1.2351226806640625,-3.967489242553711 -4.794668674468994,-7.138371467590332 -4.794668674468994,-7.138371467590332z"></path></g></g><g transform="matrix(0.9923706650733948,0.1232905313372612,-0.1232905313372612,0.9923706650733948,-1.1369092464447021,-22.72730255126953)" opacity="1" style="display: none;"><g opacity="1" transform="matrix(1.0745850801467896,0,0,1.0745850801467896,255.0500030517578,60.62300109863281)"><path fill="rgb(43,43,43)" fill-opacity="1" d=" M-0.05000000074505806,-4.002999782562256 C-2.259000062942505,-4.002999782562256 -4.050000190734863,-2.2119998931884766 -4.050000190734863,-0.003000000026077032 C-4.050000190734863,2.2060000896453857 -2.259000062942505,3.996999979019165 -0.05000000074505806,3.996999979019165 C2.178999900817871,4.002999782562256 4,2.2249999046325684 4.048999786376953,-0.003000000026077032 C4.050000190734863,-2.2119998931884766 2.259999990463257,-4.001999855041504 0.050999999046325684,-4.002999782562256 C0.01600000075995922,-4.002999782562256 -0.01600000075995922,-4.004000186920166 -0.05000000074505806,-4.002999782562256z"></path></g><g opacity="1" transform="matrix(1.0745850801467896,0,0,1.0745850801467896,228.4409942626953,70.26100158691406)"><path fill="rgb(43,43,43)" fill-opacity="1" d=" M0.04899999871850014,-4.060999870300293 C-2.2100000381469727,-4.033999919891357 -4.033999919891357,-2.2090001106262207 -4.060999870300293,0.05000000074505806 C-4.013000011444092,2.2809998989105225 -2.183000087738037,4.060999870300293 0.04899999871850014,4.050000190734863 C2.257999897003174,4.050000190734863 4.048999786376953,2.259000062942505 4.048999786376953,0.05000000074505806 C4.060999870300293,-2.181999921798706 2.2799999713897705,-4.01200008392334 0.04899999871850014,-4.060999870300293z"></path></g></g><g transform="matrix(0.9999989867210388,0.001438894192688167,-0.001438894192688167,0.9999989867210388,-0.013042985461652279,-0.29216301441192627)" opacity="1" style="display: block;"><g opacity="1" transform="matrix(1,0,0,1,255.0500030517578,60.62300109863281)"><path fill="rgb(43,43,43)" fill-opacity="1" d=" M-0.05000000074505806,-4.002999782562256 C-2.259000062942505,-4.002999782562256 -4.050000190734863,-2.2119998931884766 -4.050000190734863,-0.003000000026077032 C-4.050000190734863,2.2060000896453857 -2.259000062942505,3.996999979019165 -0.05000000074505806,3.996999979019165 C2.178999900817871,4.002999782562256 4,2.2249999046325684 4.048999786376953,-0.003000000026077032 C4.050000190734863,-2.2119998931884766 2.259999990463257,-4.001999855041504 0.050999999046325684,-4.002999782562256 C0.01600000075995922,-4.002999782562256 -0.01600000075995922,-4.004000186920166 -0.05000000074505806,-4.002999782562256z"></path></g><g opacity="1" transform="matrix(1,0,0,1,228.4409942626953,70.26100158691406)"><path fill="rgb(43,43,43)" fill-opacity="1" d=" M0.04899999871850014,-4.060999870300293 C-2.2100000381469727,-4.033999919891357 -4.033999919891357,-2.2090001106262207 -4.060999870300293,0.05000000074505806 C-4.013000011444092,2.2809998989105225 -2.183000087738037,4.060999870300293 0.04899999871850014,4.050000190734863 C2.257999897003174,4.050000190734863 4.048999786376953,2.259000062942505 4.048999786376953,0.05000000074505806 C4.060999870300293,-2.181999921798706 2.2799999713897705,-4.01200008392334 0.04899999871850014,-4.060999870300293z"></path></g></g><g style="display: none;" transform="matrix(1,0,0,1,0,0)" opacity="1"><g opacity="1" transform="matrix(1,0,0,1,255.0500030517578,60.62300109863281)"><path fill="rgb(43,43,43)" fill-opacity="1" d=" M-0.05000000074505806,-4.002999782562256 C-2.259000062942505,-4.002999782562256 -4.050000190734863,-2.2119998931884766 -4.050000190734863,-0.003000000026077032 C-4.050000190734863,2.2060000896453857 -2.259000062942505,3.996999979019165 -0.05000000074505806,3.996999979019165 C2.178999900817871,4.002999782562256 4,2.2249999046325684 4.048999786376953,-0.003000000026077032 C4.050000190734863,-2.2119998931884766 2.259999990463257,-4.001999855041504 0.050999999046325684,-4.002999782562256 C0.01600000075995922,-4.002999782562256 -0.01600000075995922,-4.004000186920166 -0.05000000074505806,-4.002999782562256z"></path></g><g opacity="1" transform="matrix(1,0,0,1,228.4409942626953,70.26100158691406)"><path fill="rgb(43,43,43)" fill-opacity="1" d=" M0.04899999871850014,-4.060999870300293 C-2.2100000381469727,-4.033999919891357 -4.033999919891357,-2.2090001106262207 -4.060999870300293,0.05000000074505806 C-4.013000011444092,2.2809998989105225 -2.183000087738037,4.060999870300293 0.04899999871850014,4.050000190734863 C2.257999897003174,4.050000190734863 4.048999786376953,2.259000062942505 4.048999786376953,0.05000000074505806 C4.060999870300293,-2.181999921798706 2.2799999713897705,-4.01200008392334 0.04899999871850014,-4.060999870300293z"></path></g></g><g transform="matrix(0.9999993443489075,0.0011614951072260737,-0.0011614951072260737,0.9999993443489075,199.75796508789062,200.0439910888672)" opacity="1" style="display: none;"><g opacity="1" transform="matrix(1,0,0,1,0,0)"><path stroke-linecap="butt" stroke-linejoin="miter" fill-opacity="0" stroke-miterlimit="4" stroke="rgb(42,42,42)" stroke-opacity="1" stroke-width="4" d=" M11.25,-121.5 C11.25,-121.5 17.75,-119.75 17.75,-119.75 C17.75,-119.75 21.75,-124 21.75,-124"></path></g><g opacity="1" transform="matrix(1,0,0,1,0,0)"><path stroke-linecap="butt" stroke-linejoin="miter" fill-opacity="0" stroke-miterlimit="4" stroke="rgb(42,42,42)" stroke-opacity="1" stroke-width="4" d=" M38.75,-127.25 C38.75,-127.25 45.5,-126 45.5,-126 C45.5,-126 48.75,-129.75 48.75,-129.75"></path></g></g><g style="display: none;" transform="matrix(0.9883588552474976,-0.15214063227176666,0.15214063227176666,0.9883588552474976,231.41299438476562,194.97999572753906)" opacity="1"><g opacity="1" transform="matrix(1,0,0,1,0,0)"><path stroke-linecap="butt" stroke-linejoin="miter" fill-opacity="0" stroke-miterlimit="4" stroke="rgb(42,42,42)" stroke-opacity="1" stroke-width="4" d=" M11.25,-121.5 C11.25,-121.5 17.75,-119.75 17.75,-119.75 C17.75,-119.75 21.75,-124 21.75,-124"></path></g><g opacity="1" transform="matrix(1,0,0,1,0,0)"><path stroke-linecap="butt" stroke-linejoin="miter" fill-opacity="0" stroke-miterlimit="4" stroke="rgb(42,42,42)" stroke-opacity="1" stroke-width="4" d=" M38.75,-127.25 C38.75,-127.25 45.5,-126 45.5,-126 C45.5,-126 48.75,-129.75 48.75,-129.75"></path></g></g><g transform="matrix(0.999998927116394,-0.0014818484196439385,0.0014818484196439385,0.999998927116394,-0.4573211669921875,0.375274658203125)" opacity="1" style="display: block;"><g opacity="1" transform="matrix(1,0,0,1,194.406005859375,196.35499572753906)"><path fill="rgb(90,117,60)" fill-opacity="1" d=" M-38.79100036621094,-28.47599983215332 C-38.79100036621094,-28.47599983215332 -16.650999069213867,29.18400001525879 -16.650999069213867,29.18400001525879 C-16.650999069213867,29.18400001525879 -3.321000099182129,33.28499984741211 -3.321000099182129,33.28499984741211 C10.715999603271484,32.637001037597656 35.41600036621094,33.840999603271484 35.41600036621094,33.840999603271484 C35.41600036621094,33.840999603271484 32.23699951171875,-33.78499984741211 32.23699951171875,-33.78499984741211 C32.23699951171875,-33.78499984741211 22.829999923706055,-51.665000915527344 22.829999923706055,-51.665000915527344 C22.829999923706055,-51.665000915527344 -17.214000701904297,-54.34000015258789 -17.214000701904297,-54.34000015258789 C-17.214000701904297,-54.34000015258789 -38.79100036621094,-28.47599983215332 -38.79100036621094,-28.47599983215332z"></path></g><g opacity="1" transform="matrix(1,0,0,1,204.86000061035156,236.9600067138672)"><path fill="rgb(153,194,108)" fill-opacity="1" d=" M24.760713577270508,-8.451868057250977 C24.760713577270508,-8.451868057250977 -27.229999542236328,-11.918999671936035 -27.229999542236328,-11.918999671936035 C-27.229999542236328,-11.918999671936035 -23.98856544494629,-3.263437032699585 -23.98856544494629,-3.263437032699585 C-23.98856544494629,-3.263437032699585 -4.820000171661377,10.479999542236328 -4.820000171661377,10.479999542236328 C-4.820000171661377,10.479999542236328 27.21839141845703,11.921504974365234 27.21839141845703,11.921504974365234 C27.21839141845703,11.921504974365234 26.978527069091797,9.691764831542969 26.978527069091797,9.691764831542969 C26.978527069091797,9.691764831542969 24.760713577270508,-8.451868057250977 24.760713577270508,-8.451868057250977z"></path></g></g><g transform="matrix(0.9999977946281433,-0.0021083038300275803,0.0021083038300275803,0.9999977946281433,-0.6143798828125,0.4959564208984375)" opacity="1" style="display: block;"><g opacity="1" transform="matrix(1,0,0,1,193.51499938964844,253.1649932861328)"><path fill="rgb(83,175,138)" fill-opacity="1" d=" M-12.635000228881836,-19.485000610351562 C-12.635000228881836,-19.485000610351562 -38.57500076293945,13.795000076293945 -38.57500076293945,13.795000076293945 C-38.57500076293945,13.795000076293945 -4.574999809265137,19.486000061035156 -4.574999809265137,19.486000061035156 C-4.574999809265137,19.486000061035156 38.57500076293945,-4.284999847412109 38.57500076293945,-4.284999847412109 C38.57500076293945,-4.284999847412109 -12.635000228881836,-19.485000610351562 -12.635000228881836,-19.485000610351562z"></path></g><g opacity="1" transform="matrix(1,0,0,1,193.51499938964844,295.0150146484375)"><path fill="rgb(62,143,110)" fill-opacity="1" d=" M-38.57500076293945,-28.05500030517578 C-38.57500076293945,-28.05500030517578 -23.015146255493164,-4.968348979949951 -23.015146255493164,-4.968348979949951 C-23.015146255493164,-4.968348979949951 -31.155000686645508,19.344999313354492 -31.155000686645508,19.344999313354492 C-31.155000686645508,19.344999313354492 11.469215393066406,46.026580810546875 11.469215393066406,46.026580810546875 C11.469215393066406,46.026580810546875 38.57500076293945,-46.1349983215332 38.57500076293945,-46.1349983215332 C38.57500076293945,-46.1349983215332 -38.57500076293945,-28.05500030517578 -38.57500076293945,-28.05500030517578z"></path></g></g><g transform="matrix(0.9999977946281433,-0.0021083038300275803,0.0021083038300275803,0.9999977946281433,-0.6143798828125,0.4959564208984375)" opacity="1" style="display: block;"><g opacity="1" transform="matrix(1,0,0,1,167.19000244140625,325.04998779296875)"><path fill="rgb(53,120,93)" fill-opacity="1" d=" M3.303370475769043,-35.01400375366211 C3.303370475769043,-35.01400375366211 -37.94901657104492,-28.879981994628906 -37.94901657104492,-28.879981994628906 C-14.718759536743164,-7.7252516746521 9.16856575012207,13.792425155639648 32.39882278442383,34.94814682006836 C32.39882278442383,34.94814682006836 37.808990478515625,15.958861351013184 37.808990478515625,15.958861351013184 C37.808990478515625,15.958861351013184 3.303370475769043,-35.01400375366211 3.303370475769043,-35.01400375366211z"></path></g></g><g transform="matrix(0.9999989867210388,0.001438894192688167,-0.001438894192688167,0.9999989867210388,-0.013042985461652279,-0.29216301441192627)" opacity="1" style="display: block;"><g opacity="1" transform="matrix(1,0,0,1,255.39500427246094,24.604999542236328)"><path fill="rgb(53,120,93)" fill-opacity="1" d=" M7.09499979019165,-2.484999895095825 C7.09499979019165,-2.484999895095825 -2.4149999618530273,-7.09499979019165 -2.4149999618530273,-7.09499979019165 C-2.4149999618530273,-7.09499979019165 -7.09499979019165,2.4149999618530273 -7.09499979019165,2.4149999618530273 C-7.09499979019165,2.4149999618530273 2.555000066757202,7.09499979019165 2.555000066757202,7.09499979019165 C2.555000066757202,7.09499979019165 7.09499979019165,-2.484999895095825 7.09499979019165,-2.484999895095825z"></path></g><g opacity="1" transform="matrix(1,0,0,1,241.4149932861328,29.434999465942383)"><path fill="rgb(83,175,138)" fill-opacity="1" d=" M7.09499979019165,-2.484999895095825 C7.09499979019165,-2.484999895095825 -2.484999895095825,-7.09499979019165 -2.484999895095825,-7.09499979019165 C-2.484999895095825,-7.09499979019165 -7.093999862670898,2.4049999713897705 -7.093999862670898,2.4049999713897705 C-7.093999862670898,2.4049999713897705 2.565999984741211,7.09499979019165 2.565999984741211,7.09499979019165 C2.565999984741211,7.09499979019165 7.09499979019165,-2.484999895095825 7.09499979019165,-2.484999895095825z"></path></g><g opacity="1" transform="matrix(1,0,0,1,227.5850067138672,34.1150016784668)"><path fill="rgb(53,120,93)" fill-opacity="1" d=" M7.093999862670898,-2.4149999618530273 C7.093999862670898,-2.4149999618530273 -2.555000066757202,-7.09499979019165 -2.555000066757202,-7.09499979019165 C-2.555000066757202,-7.09499979019165 -7.09499979019165,2.484999895095825 -7.09499979019165,2.484999895095825 C-7.09499979019165,2.484999895095825 2.4140000343322754,7.09499979019165 2.4140000343322754,7.09499979019165 C2.4140000343322754,7.09499979019165 7.093999862670898,-2.4149999618530273 7.093999862670898,-2.4149999618530273z"></path></g><g opacity="1" transform="matrix(1,0,0,1,213.61500549316406,39.084999084472656)"><path fill="rgb(83,175,138)" fill-opacity="1" d=" M7.09499979019165,-2.484999895095825 C7.09499979019165,-2.484999895095825 -2.4149999618530273,-7.09499979019165 -2.4149999618530273,-7.09499979019165 C-2.4149999618530273,-7.09499979019165 -7.09499979019165,2.484999895095825 -7.09499979019165,2.484999895095825 C-7.09499979019165,2.484999895095825 2.484999895095825,7.09499979019165 2.484999895095825,7.09499979019165 C2.484999895095825,7.09499979019165 7.09499979019165,-2.484999895095825 7.09499979019165,-2.484999895095825z"></path></g><g opacity="1" transform="matrix(1,0,0,1,199.75,43.76499938964844)"><path fill="rgb(53,120,93)" fill-opacity="1" d=" M7.059999942779541,-2.4149999618530273 C7.059999942779541,-2.4149999618530273 -2.5199999809265137,-7.09499979019165 -2.5199999809265137,-7.09499979019165 C-2.5199999809265137,-7.09499979019165 -7.059999942779541,2.484999895095825 -7.059999942779541,2.484999895095825 C-7.059999942779541,2.484999895095825 2.5199999809265137,7.09499979019165 2.5199999809265137,7.09499979019165 C2.5199999809265137,7.09499979019165 7.059999942779541,-2.4149999618530273 7.059999942779541,-2.4149999618530273z"></path></g><g opacity="1" transform="matrix(1,0,0,1,185.9550018310547,48.595001220703125)"><path fill="rgb(83,175,138)" fill-opacity="1" d=" M7.09499979019165,-2.4149999618530273 C7.09499979019165,-2.4149999618530273 -2.4149999618530273,-7.09499979019165 -2.4149999618530273,-7.09499979019165 C-2.4149999618530273,-7.09499979019165 -7.09499979019165,2.555000066757202 -7.09499979019165,2.555000066757202 C-7.09499979019165,2.555000066757202 2.555000066757202,7.09499979019165 2.555000066757202,7.09499979019165 C2.555000066757202,7.09499979019165 7.09499979019165,-2.4149999618530273 7.09499979019165,-2.4149999618530273z"></path></g><g opacity="1" transform="matrix(1,0,0,1,172.125,53.345001220703125)"><path fill="rgb(53,120,93)" fill-opacity="1" d=" M7.09499979019165,-2.484999895095825 C7.09499979019165,-2.484999895095825 -2.555000066757202,-7.09499979019165 -2.555000066757202,-7.09499979019165 C-2.555000066757202,-7.09499979019165 -7.09499979019165,2.4149999618530273 -7.09499979019165,2.4149999618530273 C-7.09499979019165,2.4149999618530273 2.484999895095825,7.09499979019165 2.484999895095825,7.09499979019165 C2.484999895095825,7.09499979019165 7.09499979019165,-2.484999895095825 7.09499979019165,-2.484999895095825z"></path></g><g opacity="1" transform="matrix(1,0,0,1,158.22500610351562,58.17499923706055)"><path fill="rgb(83,175,138)" fill-opacity="1" d=" M7.09499979019165,-2.484999895095825 C7.09499979019165,-2.484999895095825 -2.484999895095825,-7.09499979019165 -2.484999895095825,-7.09499979019165 C-2.484999895095825,-7.09499979019165 -7.09499979019165,2.4149999618530273 -7.09499979019165,2.4149999618530273 C-7.09499979019165,2.4149999618530273 2.4049999713897705,7.09499979019165 2.4049999713897705,7.09499979019165 C2.4049999713897705,7.09499979019165 7.09499979019165,-2.484999895095825 7.09499979019165,-2.484999895095825z"></path></g></g><g transform="matrix(0.9998936057090759,-0.014586838893592358,0.014586838893592358,0.9998936057090759,-2.4150638580322266,2.5748250484466553)" opacity="1" style="display: block;"><g opacity="1" transform="matrix(1,0,0,1,254.9600067138672,224.4600067138672)"><path fill="rgb(153,194,108)" fill-opacity="1" d=" M-24.81878089904785,-11.907279014587402 C-24.81878089904785,-11.907279014587402 18.909000396728516,-24.420000076293945 18.909000396728516,-24.420000076293945 C18.909000396728516,-24.420000076293945 23.020000457763672,-20.670000076293945 23.020000457763672,-20.670000076293945 C23.020000457763672,-20.670000076293945 24.530000686645508,-15.850000381469727 24.530000686645508,-15.850000381469727 C24.530000686645508,-15.850000381469727 -22.871000289916992,24.420000076293945 -22.871000289916992,24.420000076293945 C-22.871000289916992,24.420000076293945 -24.81878089904785,-11.907279014587402 -24.81878089904785,-11.907279014587402z"></path></g></g><g transform="matrix(0.9997542500495911,-0.022170720621943474,0.022170720621943474,0.9997542500495911,-4.259570598602295,4.360893726348877)" opacity="1" style="display: block;"><g opacity="1" transform="matrix(1,0,0,1,210.44500732421875,216.03500366210938)"><path fill="rgb(115,141,86)" fill-opacity="1" d=" M18.56999969482422,-32.06999969482422 C18.56999969482422,-32.06999969482422 21.645000457763672,32.845001220703125 21.645000457763672,32.845001220703125 C21.645000457763672,32.845001220703125 -21.645000457763672,-32.845001220703125 -21.645000457763672,-32.845001220703125 C-21.645000457763672,-32.845001220703125 -3.7839999198913574,-32.084999084472656 -3.7839999198913574,-32.084999084472656 C-3.7839999198913574,-32.084999084472656 18.56999969482422,-32.06999969482422 18.56999969482422,-32.06999969482422z"></path></g></g><g transform="matrix(0.9999997615814209,0.0006078284350223839,-0.0006078284350223839,0.9999997615814209,0.6140543222427368,-1.597748875617981)" opacity="1" style="display: block;"><g opacity="1" transform="matrix(1,0,0,1,0,0)"><g opacity="1" transform="matrix(1,0,0,1,0,0)"><g opacity="1" transform="matrix(1,0,0,1,287.70001220703125,196.3300018310547)"><path fill="rgb(223,188,164)" fill-opacity="1" d=" M-13.829999923706055,3.7100000381469727 C-13.829999923706055,3.7100000381469727 -6.989999771118164,-3.3499999046325684 -6.989999771118164,-3.3499999046325684 C-6.989999771118164,-3.3499999046325684 1.7300000190734863,3.140000104904175 1.7300000190734863,3.140000104904175 C1.7300000190734863,3.140000104904175 11.239999771118164,-12.279999732971191 11.239999771118164,-12.279999732971191 C11.239999771118164,-12.279999732971191 13.829999923706055,-12.279999732971191 13.829999923706055,-12.279999732971191 C13.829999923706055,-12.279999732971191 9.359000205993652,8.319999694824219 9.359000205993652,8.319999694824219 C9.359000205993652,8.319999694824219 -8.210000038146973,12.279999732971191 -8.210000038146973,12.279999732971191 C-8.210000038146973,12.279999732971191 -13.829999923706055,3.7100000381469727 -13.829999923706055,3.7100000381469727z"></path></g><g opacity="1" transform="matrix(1,0,0,1,289.3900146484375,194.35000610351562)"><path fill="rgb(138,102,81)" fill-opacity="1" d=" M-12.140000343322754,2.0899999141693115 C-12.140000343322754,2.0899999141693115 7.670000076293945,10.300000190734863 7.670000076293945,10.300000190734863 C7.670000076293945,10.300000190734863 11.489999771118164,1.0099999904632568 11.489999771118164,1.0099999904632568 C11.489999771118164,1.0099999904632568 12.140000343322754,-10.300000190734863 12.140000343322754,-10.300000190734863 C12.140000343322754,-10.300000190734863 9.550000190734863,-10.300000190734863 9.550000190734863,-10.300000190734863 C9.550000190734863,-10.300000190734863 3.6679999828338623,-9.262999534606934 3.6679999828338623,-9.262999534606934 C3.6679999828338623,-9.262999534606934 -0.1340000033378601,-7.916999816894531 -0.1340000033378601,-7.916999816894531 C-0.1340000033378601,-7.916999816894531 -5.063000202178955,-5.2129998207092285 -5.063000202178955,-5.2129998207092285 C-5.063000202178955,-5.2129998207092285 -8.680000305175781,-1.3700000047683716 -8.680000305175781,-1.3700000047683716 C-8.680000305175781,-1.3700000047683716 -12.140000343322754,2.0899999141693115 -12.140000343322754,2.0899999141693115z"></path></g></g><g opacity="1" transform="matrix(1,0,0,1,0,0)"><g opacity="1" transform="matrix(1,0,0,1,303.4750061035156,214.22999572753906)"><path fill="rgb(115,141,86)" fill-opacity="1" d=" M1.5850000381469727,-9.289999961853027 C1.5850000381469727,-9.289999961853027 1.875,9.289999961853027 1.875,9.289999961853027 C1.875,9.289999961853027 -1.875,9.289999961853027 -1.875,9.289999961853027 C-1.875,9.289999961853027 -1.5850000381469727,-9.289999961853027 -1.5850000381469727,-9.289999961853027 C-1.5850000381469727,-9.289999961853027 1.5850000381469727,-9.289999961853027 1.5850000381469727,-9.289999961853027z"></path></g><g opacity="1" transform="matrix(1,0,0,1,293.9700012207031,159.77499389648438)"><path fill="rgb(184,198,69)" fill-opacity="1" d=" M9.069999694824219,9.074999809265137 C9.069999694824219,9.074999809265137 8.667253494262695,-9.565149307250977 8.667253494262695,-9.565149307250977 C8.667253494262695,-9.565149307250977 -12.512746810913086,-3.875149726867676 -12.512746810913086,-3.875149726867676 C-12.512746810913086,-3.875149726867676 1.3700000047683716,9.074999809265137 1.3700000047683716,9.074999809265137 C1.3700000047683716,9.074999809265137 9.069999694824219,9.074999809265137 9.069999694824219,9.074999809265137z"></path></g><g opacity="1" transform="matrix(1,0,0,1,281.7950134277344,172.01499938964844)"><path fill="rgb(184,198,69)" fill-opacity="1" d=" M13.545000076293945,0.14499999582767487 C13.545000076293945,0.14499999582767487 -3.511312484741211,-12.68048095703125 -3.511312484741211,-12.68048095703125 C-3.511312484741211,-12.68048095703125 -10.641312599182129,5.329519271850586 -10.641312599182129,5.329519271850586 C-10.641312599182129,5.329519271850586 13.545000076293945,5.835000038146973 13.545000076293945,5.835000038146973 C13.545000076293945,5.835000038146973 13.545000076293945,0.14499999582767487 13.545000076293945,0.14499999582767487z"></path></g><g opacity="1" transform="matrix(1,0,0,1,285.5050048828125,190.2449951171875)"><path fill="rgb(184,198,69)" fill-opacity="1" d=" M9.835000038146973,-9.225000381469727 C9.835000038146973,-9.225000381469727 -16.14657974243164,-7.275364398956299 -16.14657974243164,-7.275364398956299 C-16.14657974243164,-7.275364398956299 1.213421106338501,5.844635486602783 1.213421106338501,5.844635486602783 C1.213421106338501,5.844635486602783 13.4350004196167,-6.195000171661377 13.4350004196167,-6.195000171661377 C13.4350004196167,-6.195000171661377 9.835000038146973,-6.195000171661377 9.835000038146973,-6.195000171661377 C9.835000038146973,-6.195000171661377 9.835000038146973,-9.225000381469727 9.835000038146973,-9.225000381469727z"></path></g><g opacity="1" transform="matrix(1,0,0,1,306.2099914550781,194.4949951171875)"><path fill="rgb(184,198,69)" fill-opacity="1" d=" M-4.678999900817871,-10.444999694824219 C-4.678999900817871,-10.444999694824219 -12.680488586425781,10.460098266601562 -12.680488586425781,10.460098266601562 C-12.680488586425781,10.460098266601562 5.620511054992676,10.75009822845459 5.620511054992676,10.75009822845459 C5.620511054992676,10.75009822845459 0.7200000286102295,-10.444999694824219 0.7200000286102295,-10.444999694824219 C0.7200000286102295,-10.444999694824219 -4.678999900817871,-10.444999694824219 -4.678999900817871,-10.444999694824219z"></path></g><g opacity="1" transform="matrix(1,0,0,1,323.5,191.17999267578125)"><path fill="rgb(184,198,69)" fill-opacity="1" d=" M-12.888999938964844,-7.130000114440918 C-12.888999938964844,-7.130000114440918 1.4829682111740112,8.885054588317871 1.4829682111740112,8.885054588317871 C1.4829682111740112,8.885054588317871 13.221967697143555,-2.494945526123047 13.221967697143555,-2.494945526123047 C13.221967697143555,-2.494945526123047 -12.888999938964844,-11.449999809265137 -12.888999938964844,-11.449999809265137 C-12.888999938964844,-11.449999809265137 -12.888999938964844,-7.130000114440918 -12.888999938964844,-7.130000114440918z"></path></g><g opacity="1" transform="matrix(1,0,0,1,325.5899963378906,176.08999633789062)"><path fill="rgb(184,198,69)" fill-opacity="1" d=" M-14.979999542236328,1.190000057220459 C-14.979999542236328,1.190000057220459 8.419527053833008,1.3974958658218384 8.419527053833008,1.3974958658218384 C8.419527053833008,1.3974958658218384 11.159526824951172,-13.942503929138184 11.159526824951172,-13.942503929138184 C11.159526824951172,-13.942503929138184 -14.979999542236328,-2.3399999141693115 -14.979999542236328,-2.3399999141693115 C-14.979999542236328,-2.3399999141693115 -14.979999542236328,1.190000057220459 -14.979999542236328,1.190000057220459z"></path></g><g opacity="1" transform="matrix(1,0,0,1,319.6099853515625,160.35000610351562)"><path fill="rgb(184,198,69)" fill-opacity="1" d=" M-9,10.880000114440918 C-9,10.880000114440918 8.586281776428223,-3.5711123943328857 8.586281776428223,-3.5711123943328857 C8.586281776428223,-3.5711123943328857 -7.182718753814697,-13.15111255645752 -7.182718753814697,-13.15111255645752 C-7.182718753814697,-13.15111255645752 -14.1899995803833,8.5 -14.1899995803833,8.5 C-14.1899995803833,8.5 -9,8.5 -9,8.5 C-9,8.5 -9,10.880000114440918 -9,10.880000114440918z"></path></g><g opacity="1" transform="matrix(1,0,0,1,302.9739990234375,176.4499969482422)"><path fill="rgb(90,117,60)" fill-opacity="1" d=" M7.635000228881836,7.599999904632568 C7.635000228881836,7.599999904632568 -7.635000228881836,7.599999904632568 -7.635000228881836,7.599999904632568 C-7.635000228881836,7.599999904632568 -7.635000228881836,-7.599999904632568 -7.635000228881836,-7.599999904632568 C-7.635000228881836,-7.599999904632568 7.635000228881836,-7.599999904632568 7.635000228881836,-7.599999904632568 C7.635000228881836,-7.599999904632568 7.635000228881836,7.599999904632568 7.635000228881836,7.599999904632568z"></path></g><g opacity="1" transform="matrix(1,0,0,1,302.9750061035156,176.4499969482422)"><path fill="rgb(217,226,83)" fill-opacity="1" d=" M0.06499999761581421,-7.599999904632568 C0.06499999761581421,-7.599999904632568 -7.635000228881836,0.03999999910593033 -7.635000228881836,0.03999999910593033 C-7.635000228881836,0.03999999910593033 0.06499999761581421,7.599999904632568 0.06499999761581421,7.599999904632568 C0.06499999761581421,7.599999904632568 7.635000228881836,0.03999999910593033 7.635000228881836,0.03999999910593033 C7.635000228881836,0.03999999910593033 0.06499999761581421,-7.599999904632568 0.06499999761581421,-7.599999904632568z"></path></g></g></g></g><g transform="matrix(0.9998375773429871,-0.018025951460003853,0.018025951460003853,0.9998375773429871,-0.8939704298973083,3.6993868350982666)" opacity="1" style="display: block;"><g opacity="1" transform="matrix(1,0,0,1,0,0)"><path fill="rgb(217,227,84)" fill-opacity="1" d=" M205.5,113.5 C205.5,113.5 202,175.5 202,175.5 C202,175.5 207.7164306640625,184.7548370361328 207.7164306640625,184.7548370361328 C207.7164306640625,184.7548370361328 214.00799560546875,176 214.00799560546875,176 C214.00799560546875,176 210.8260040283203,124.95999908447266 210.8260040283203,124.95999908447266 C210.8260040283203,124.95999908447266 205.5,113.5 205.5,113.5z"></path></g><g opacity="1" transform="matrix(1,0,0,1,225.57000732421875,150.48500061035156)"><path fill="rgb(217,226,83)" fill-opacity="1" d=" M-18.329999923706055,-34.21500015258789 C-18.329999923706055,-34.21500015258789 2.7699999809265137,3.744999885559082 2.7699999809265137,3.744999885559082 C2.7699999809265137,3.744999885559082 18.90999984741211,33.564998626708984 18.90999984741211,33.564998626708984 C18.90999984741211,33.564998626708984 -17.811792373657227,34.20979690551758 -17.811792373657227,34.20979690551758 C-17.811792373657227,34.20979690551758 -18.329999923706055,-34.21500015258789 -18.329999923706055,-34.21500015258789z"></path></g><g opacity="1" transform="matrix(0.9989686608314514,-0.04540463536977768,0.04540463536977768,0.9989686608314514,168.28369140625,111.35095977783203)"><path fill="rgb(217,226,83)" fill-opacity="1" d=" M34.25,-35.474998474121094 C34.25,-35.474998474121094 -9.829999923706055,58.8849983215332 -9.829999923706055,58.8849983215332 C-9.829999923706055,58.8849983215332 -36.70000076293945,44.845001220703125 -36.70000076293945,44.845001220703125 C-36.70000076293945,44.845001220703125 -18.479999542236328,18.625 -18.479999542236328,18.625 C-18.479999542236328,18.625 36.70000076293945,-58.8849983215332 36.70000076293945,-58.8849983215332 C36.70000076293945,-58.8849983215332 34.25,-35.474998474121094 34.25,-35.474998474121094z"></path></g><g opacity="1" transform="matrix(0.9995956420898438,-0.028435731306672096,0.028435731306672096,0.9995956420898438,180.2512664794922,129.4917755126953)"><path fill="rgb(184,198,69)" fill-opacity="1" d=" M22.040000915527344,-54.459999084472656 C22.040000915527344,-54.459999084472656 7.473999977111816,-23.27899932861328 7.473999977111816,-23.27899932861328 C7.473999977111816,-23.27899932861328 -22.040000915527344,39.900001525878906 -22.040000915527344,39.900001525878906 C-22.040000915527344,39.900001525878906 4.4534101486206055,51.5677375793457 4.4534101486206055,51.5677375793457 C4.4534101486206055,51.5677375793457 11.236370086669922,53.98748016357422 11.236370086669922,53.98748016357422 C11.236370086669922,53.98748016357422 14.760000228881836,17.209999084472656 14.760000228881836,17.209999084472656 C14.760000228881836,17.209999084472656 21.18000030517578,-11.170000076293945 21.18000030517578,-11.170000076293945 C21.18000030517578,-11.170000076293945 22.040000915527344,-54.459999084472656 22.040000915527344,-54.459999084472656z"></path></g><g opacity="1" transform="matrix(0.9999688863754272,-0.007890064269304276,0.007890064269304276,0.9999688863754272,-0.2969970703125,1.6316795349121094)"><g opacity="1" transform="matrix(1,0,0,1,198.02000427246094,112.95500183105469)"><path fill="rgb(232,239,120)" fill-opacity="1" d=" M4.25,-62.095001220703125 C4.25,-62.095001220703125 -9.067574501037598,69.33494567871094 -9.067574501037598,69.33494567871094 C-9.067574501037598,69.33494567871094 8.640999794006348,71.74500274658203 8.640999794006348,71.74500274658203 C8.640999794006348,71.74500274658203 9.220999717712402,3.315000057220459 9.220999717712402,3.315000057220459 C9.220999717712402,3.315000057220459 8.720999717712402,-71.74500274658203 8.720999717712402,-71.74500274658203 C8.720999717712402,-71.74500274658203 4.25,-62.095001220703125 4.25,-62.095001220703125z"></path></g><g opacity="1" transform="matrix(1,0,0,1,202.58999633789062,80.28500366210938)"><path fill="rgb(90,117,60)" fill-opacity="1" d=" M4.289999961853027,-10.845000267028809 C4.289999961853027,-10.845000267028809 -2.7699999809265137,-6.014999866485596 -2.7699999809265137,-6.014999866485596 C-2.7699999809265137,-6.014999866485596 -4.429999828338623,10.845000267028809 -4.429999828338623,10.845000267028809 C-4.429999828338623,10.845000267028809 4.429999828338623,4.864999771118164 4.429999828338623,4.864999771118164 C4.429999828338623,4.864999771118164 4.289999961853027,-10.845000267028809 4.289999961853027,-10.845000267028809z"></path></g><g opacity="1" transform="matrix(1,0,0,1,202.01400756835938,94.26000213623047)"><path fill="rgb(153,194,108)" fill-opacity="1" d=" M5.005000114440918,-9.109999656677246 C5.005000114440918,-9.109999656677246 -3.8540000915527344,-3.130000114440918 -3.8540000915527344,-3.130000114440918 C-3.8540000915527344,-3.130000114440918 -5.074999809265137,9.109999656677246 -5.074999809265137,9.109999656677246 C-5.074999809265137,9.109999656677246 5.074999809265137,3.490000009536743 5.074999809265137,3.490000009536743 C5.074999809265137,3.490000009536743 5.005000114440918,-9.109999656677246 5.005000114440918,-9.109999656677246z"></path></g><g opacity="1" transform="matrix(1,0,0,1,201.3350067138672,107.37000274658203)"><path fill="rgb(90,117,60)" fill-opacity="1" d=" M5.755000114440918,-9.619999885559082 C5.755000114440918,-9.619999885559082 -4.394999980926514,-4 -4.394999980926514,-4 C-4.394999980926514,-4 -5.835000038146973,9.619999885559082 -5.835000038146973,9.619999885559082 C-5.835000038146973,9.619999885559082 5.835000038146973,3.130000114440918 5.835000038146973,3.130000114440918 C5.835000038146973,3.130000114440918 5.755000114440918,-9.619999885559082 5.755000114440918,-9.619999885559082z"></path></g><g opacity="1" transform="matrix(1,0,0,1,200.5800018310547,121.2699966430664)"><path fill="rgb(153,194,108)" fill-opacity="1" d=" M6.590000152587891,-10.770000457763672 C6.590000152587891,-10.770000457763672 -5.079999923706055,-4.28000020980835 -5.079999923706055,-4.28000020980835 C-5.079999923706055,-4.28000020980835 -6.590000152587891,10.770000457763672 -6.590000152587891,10.770000457763672 C-6.590000152587891,10.770000457763672 6.590000152587891,3.2100000381469727 6.590000152587891,3.2100000381469727 C6.590000152587891,3.2100000381469727 6.590000152587891,-10.770000457763672 6.590000152587891,-10.770000457763672z"></path></g><g opacity="1" transform="matrix(1,0,0,1,199.85499572753906,135.2100067138672)"><path fill="rgb(90,117,60)" fill-opacity="1" d=" M7.315000057220459,-10.729999542236328 C7.315000057220459,-10.729999542236328 -5.864999771118164,-3.1700000762939453 -5.864999771118164,-3.1700000762939453 C-5.864999771118164,-3.1700000762939453 -7.315000057220459,10.729999542236328 -7.315000057220459,10.729999542236328 C-7.315000057220459,10.729999542236328 7.235000133514404,2.6700000762939453 7.235000133514404,2.6700000762939453 C7.235000133514404,2.6700000762939453 7.315000057220459,-10.729999542236328 7.315000057220459,-10.729999542236328z"></path></g></g></g><g transform="matrix(0.8300575017929077,0.5576777458190918,-0.5576777458190918,0.8300575017929077,178.38397216796875,-85.31257629394531)" opacity="1" style="display: block;"><g opacity="1" transform="matrix(1,0,0,1,0,0)"><g opacity="1" transform="matrix(1,0,0,1,31.260000228881836,166.5)"><path fill="rgb(62,143,110)" fill-opacity="1" d=" M1.4320203065872192,21.55258560180664 C1.4320203065872192,21.55258560180664 -12.851529121398926,-15.64311408996582 -12.851529121398926,-15.64311408996582 C-12.851529121398926,-15.64311408996582 -10.050000190734863,5.940000057220459 -10.050000190734863,5.940000057220459 C-10.050000190734863,5.940000057220459 1.4320203065872192,21.55258560180664 1.4320203065872192,21.55258560180664z"></path></g><g opacity="1" transform="matrix(1,0,0,1,10.729999542236328,173.09500122070312)"><path fill="rgb(83,175,138)" fill-opacity="1" d=" M10.479999542236328,-0.6549999713897705 C10.479999542236328,-0.6549999713897705 -1.9851343631744385,-19.363988876342773 -1.9851343631744385,-19.363988876342773 C-1.9851343631744385,-19.363988876342773 9.38679313659668,18.74842071533203 9.38679313659668,18.74842071533203 C9.38679313659668,18.74842071533203 10.479999542236328,-0.6549999713897705 10.479999542236328,-0.6549999713897705z"></path></g><g opacity="1" transform="matrix(1,0,0,1,29.420000076293945,181.69500732421875)"><path fill="rgb(115,141,86)" fill-opacity="1" d=" M2.7929842472076416,5.807807922363281 C2.7929842472076416,5.807807922363281 -8.210000038146973,-9.255000114440918 -8.210000038146973,-9.255000114440918 C-8.210000038146973,-9.255000114440918 -7.559999942779541,-0.4650000035762787 -7.559999942779541,-0.4650000035762787 C-7.559999942779541,-0.4650000035762787 -5.179999828338623,6.09499979019165 -5.179999828338623,6.09499979019165 C-5.179999828338623,6.09499979019165 2.7929842472076416,5.807807922363281 2.7929842472076416,5.807807922363281z"></path></g><g opacity="1" transform="matrix(1,0,0,1,18.225000381469727,183.86000061035156)"><path fill="rgb(153,194,108)" fill-opacity="1" d=" M2.984999895095825,-11.420000076293945 C2.984999895095825,-11.420000076293945 1.9874097108840942,7.7265801429748535 1.9874097108840942,7.7265801429748535 C1.9874097108840942,7.7265801429748535 6.014999866485596,3.930000066757202 6.014999866485596,3.930000066757202 C6.014999866485596,3.930000066757202 2.984999895095825,-11.420000076293945 2.984999895095825,-11.420000076293945z"></path></g></g></g><g transform="matrix(0.9294142127037048,0.36903825402259827,-0.36903825402259827,0.9294142127037048,127.72383117675781,-13.920867919921875)" opacity="1" style="display: block;"><g opacity="1" transform="matrix(1,0,0,1,0,0)"><g opacity="1" transform="matrix(1,0,0,1,268.3550109863281,13.9350004196167)"><path fill="rgb(62,143,110)" fill-opacity="1" d=" M1.8569610118865967,17.578880310058594 C1.8569610118865967,17.578880310058594 -15.22335147857666,-9.061699867248535 -15.22335147857666,-9.061699867248535 C-15.22335147857666,-9.061699867248535 -11.055000305175781,11.595000267028809 -11.055000305175781,11.595000267028809 C-11.055000305175781,11.595000267028809 1.8569610118865967,17.578880310058594 1.8569610118865967,17.578880310058594z"></path></g><g opacity="1" transform="matrix(1,0,0,1,244.97999572753906,32.51499938964844)"><path fill="rgb(83,175,138)" fill-opacity="1" d=" M12.321000099182129,-6.985000133514404 C12.321000099182129,-6.985000133514404 -1.0952497720718384,-23.079389572143555 -1.0952497720718384,-23.079389572143555 C-1.0952497720718384,-23.079389572143555 12.783064842224121,8.873517990112305 12.783064842224121,8.873517990112305 C12.783064842224121,8.873517990112305 12.321000099182129,-6.985000133514404 12.321000099182129,-6.985000133514404z"></path></g><g opacity="1" transform="matrix(1,0,0,1,268.17498779296875,32.22999954223633)"><path fill="rgb(115,141,86)" fill-opacity="1" d=" M1.7483174800872803,-0.08343663066625595 C1.7483174800872803,-0.08343663066625595 -10.875,-6.699999809265137 -10.875,-6.699999809265137 C-10.875,-6.699999809265137 -7.926000118255615,1.2999999523162842 -7.926000118255615,1.2999999523162842 C-7.926000118255615,1.2999999523162842 -2.805999994277954,6.699999809265137 -2.805999994277954,6.699999809265137 C-2.805999994277954,6.699999809265137 1.7483174800872803,-0.08343663066625595 1.7483174800872803,-0.08343663066625595z"></path></g><g opacity="1" transform="matrix(1,0,0,1,261.010009765625,37.849998474121094)"><path fill="rgb(153,194,108)" fill-opacity="1" d=" M-3.7090001106262207,-12.319999694824219 C-3.7090001106262207,-12.319999694824219 -3.553267240524292,4.149691581726074 -3.553267240524292,4.149691581726074 C-3.553267240524292,4.149691581726074 4.359000205993652,1.0800000429153442 4.359000205993652,1.0800000429153442 C4.359000205993652,1.0800000429153442 -3.7090001106262207,-12.319999694824219 -3.7090001106262207,-12.319999694824219z"></path></g></g></g><g transform="matrix(0.7441321611404419,-0.6680324077606201,0.6680324077606201,0.7441321611404419,13.388107299804688,145.69424438476562)" opacity="1" style="display: block;"><g opacity="1" transform="matrix(1,0,0,1,0,0)"><g opacity="1" transform="matrix(1,0,0,1,54.130001068115234,16.3799991607666)"><path fill="rgb(62,143,110)" fill-opacity="1" d=" M-7.35696268081665,21.778501510620117 C-7.35696268081665,21.778501510620117 12.646605491638184,-8.812582969665527 12.646605491638184,-8.812582969665527 C12.646605491638184,-8.812582969665527 11.0600004196167,11.5600004196167 11.0600004196167,11.5600004196167 C11.0600004196167,11.5600004196167 -7.35696268081665,21.778501510620117 -7.35696268081665,21.778501510620117z"></path></g><g opacity="1" transform="matrix(1,0,0,1,77.50499725341797,34.93000030517578)"><path fill="rgb(83,175,138)" fill-opacity="1" d=" M-12.3149995803833,-6.989999771118164 C-12.3149995803833,-6.989999771118164 8.438114166259766,-16.022981643676758 8.438114166259766,-16.022981643676758 C8.438114166259766,-16.022981643676758 -12.288137435913086,14.256072998046875 -12.288137435913086,14.256072998046875 C-12.288137435913086,14.256072998046875 -12.3149995803833,-6.989999771118164 -12.3149995803833,-6.989999771118164z"></path></g><g opacity="1" transform="matrix(1,0,0,1,54.310001373291016,34.63999938964844)"><path fill="rgb(115,141,86)" fill-opacity="1" d=" M-6.99187707901001,7.56247091293335 C-6.99187707901001,7.56247091293335 10.880000114440918,-6.699999809265137 10.880000114440918,-6.699999809265137 C10.880000114440918,-6.699999809265137 6.769999980926514,2.5999999046325684 6.769999980926514,2.5999999046325684 C6.769999980926514,2.5999999046325684 2.740000009536743,6.699999809265137 2.740000009536743,6.699999809265137 C2.740000009536743,6.699999809265137 -6.99187707901001,7.56247091293335 -6.99187707901001,7.56247091293335z"></path></g><g opacity="1" transform="matrix(1,0,0,1,61.439998626708984,40.2599983215332)"><path fill="rgb(153,194,108)" fill-opacity="1" d=" M3.75,-12.319999694824219 C3.75,-12.319999694824219 0.4694869816303253,10.868398666381836 0.4694869816303253,10.868398666381836 C0.4694869816303253,10.868398666381836 -4.389999866485596,1.0800000429153442 -4.389999866485596,1.0800000429153442 C-4.389999866485596,1.0800000429153442 3.75,-12.319999694824219 3.75,-12.319999694824219z"></path></g></g></g></g></svg>